# xmcd
#
# Track frame offsets: 
#        150
#        24771
#        40733
#        57854
#        76504
#        99523
#        125933
#        147395
#        166345
#        185871
#        203403
#        221886
#        245632
#        267433
#
# Disc length: 3791 seconds
#
# Revision: 3
# Processed by: cddbd v1.5.2PL0 Copyright (c) Steve Scherf et al.
# Submitted via: ExactAudioCopyFreeDBPlugin 1.0
#
DISCID=c70ecd0e
DTITLE=Various Artist - Spots of Time 光景印象
DYEAR=2004
DGENRE=New Age
TTITLE0=聽見藍山的味道 (選自 董運昌 名曲新編 先聽版)
TTITLE1=橘色溫度 (選自 何真真 三顆貓餅乾 先聽版)
TTITLE2=單車練習曲 (選自 飄浮手風琴)
TTITLE3=旋轉木馬 (選自 陶笛奇遇記)
TTITLE4=春水 (選自 戀戀溫泉)
TTITLE5=青春之歌 (選自 林慧玲 作品選粹 先聽版)
TTITLE6=城南夜 (選自 故事)
TTITLE7=天堂島 (選自 遇見天空)
TTITLE8=人之島 (選自 飛魚樂園)
TTITLE9=逐浪 (選自 住海邊)
TTITLE10=月台上的旅人 (選自 第33個街角轉彎)
TTITLE11=依蘭依蘭 (選自 林笛 迷路新娘)
TTITLE12=七顆星星的詩篇 (選自 Vu Vu的故事)
TTITLE13=秘密部落 (選自 夜的精靈)
EXTD=YEAR: 2004
EXTT0=
EXTT1=
EXTT2=
EXTT3=
EXTT4=
EXTT5=
EXTT6=
EXTT7=
EXTT8=
EXTT9=
EXTT10=
EXTT11=
EXTT12=
EXTT13=
PLAYORDER=
